<?xml version="1.0" encoding="utf-8"?>
<!-- Generator: Adobe Illustrator 26.0.1, SVG Export Plug-In . SVG Version: 6.00 Build 0)  -->
<svg version="1.1" id="Layer_1" xmlns="http://www.w3.org/2000/svg" xmlns:xlink="http://www.w3.org/1999/xlink" x="0px" y="0px"
	 viewBox="0 0 1080 1080" style="enable-background:new 0 0 1080 1080;" xml:space="preserve">
<style type="text/css">
	.st0{fill:#663A32;}
	.st1{fill:#EB8C25;}
	.st2{fill:#F9BB26;}
	.st3{fill:#90573C;}
	.st4{fill:#D9A066;}
	.st5{fill:#FFDF76;}
	.st6{fill:#45293D;}
</style>
<g>
	<rect x="409.41" y="801.18" class="st0" width="261.18" height="65.29"/>
	<rect x="670.59" y="735.88" class="st0" width="65.29" height="65.29"/>
	<rect x="344.12" y="735.88" class="st0" width="65.29" height="65.29"/>
	<rect x="735.88" y="605.29" class="st0" width="195.88" height="65.29"/>
	<rect x="474.71" y="605.29" class="st0" width="130.59" height="65.29"/>
	<rect x="148.23" y="605.29" class="st0" width="195.88" height="65.29"/>
	<rect x="931.77" y="605.29" class="st1" width="65.29" height="65.29"/>
	<rect x="82.94" y="605.29" class="st1" width="65.29" height="65.29"/>
	<rect x="670.59" y="474.71" class="st1" width="65.29" height="65.29"/>
	<rect x="344.12" y="474.71" class="st1" width="65.29" height="65.29"/>
	<rect x="409.41" y="409.41" class="st1" width="261.18" height="65.29"/>
	<polygon class="st2" points="931.77,931.77 148.23,931.77 148.23,670.59 82.94,670.59 82.94,997.06 997.06,997.06 997.06,670.59 
		931.77,670.59 	"/>
	<polygon class="st2" points="670.59,735.88 670.59,540 605.29,540 605.29,670.59 474.71,670.59 474.71,540 409.41,540 
		409.41,735.88 	"/>
	<polygon class="st2" points="344.12,540 344.12,474.71 148.23,474.71 148.23,148.23 82.94,148.23 82.94,540 	"/>
	<rect x="474.71" y="148.23" class="st2" width="130.59" height="261.18"/>
	<polygon class="st2" points="931.77,474.71 735.88,474.71 735.88,540 997.06,540 997.06,148.23 931.77,148.23 	"/>
	<polygon class="st3" points="735.88,670.59 735.88,801.18 670.59,801.18 670.59,866.47 409.41,866.47 409.41,801.18 344.12,801.18 
		344.12,670.59 148.23,670.59 148.23,931.77 931.77,931.77 931.77,670.59 	"/>
	<polygon class="st3" points="409.41,474.71 409.41,409.41 474.71,409.41 474.71,148.23 148.23,148.23 148.23,474.71 	"/>
	<polygon class="st3" points="605.29,148.23 605.29,409.41 670.59,409.41 670.59,474.71 931.77,474.71 931.77,148.23 	"/>
	<rect x="605.29" y="82.94" class="st4" width="326.47" height="65.29"/>
	<rect x="148.23" y="82.94" class="st4" width="326.47" height="65.29"/>
	<rect x="409.41" y="474.71" class="st5" width="261.18" height="65.29"/>
	<rect x="931.77" y="82.94" class="st5" width="65.29" height="65.29"/>
	<rect x="474.71" y="82.94" class="st5" width="130.59" height="65.29"/>
	<rect x="82.94" y="82.94" class="st5" width="65.29" height="65.29"/>
	<rect x="409.41" y="735.88" class="st6" width="261.18" height="65.29"/>
	<rect x="474.71" y="540" class="st6" width="130.59" height="65.29"/>
	<polygon class="st6" points="997.06,540 670.59,540 670.59,735.88 735.88,735.88 735.88,605.29 997.06,605.29 997.06,997.06 
		82.94,997.06 82.94,605.29 344.12,605.29 344.12,735.88 409.41,735.88 409.41,540 82.94,540 82.94,82.94 17.64,82.94 
		17.64,1062.36 1062.36,1062.36 1062.36,82.94 997.06,82.94 	"/>
	<rect x="82.94" y="17.64" class="st6" width="914.13" height="65.29"/>
</g>
</svg>
