<?xml version="1.0" encoding="utf-8"?>
<!-- Generator: Adobe Illustrator 26.0.1, SVG Export Plug-In . SVG Version: 6.00 Build 0)  -->
<svg version="1.1" id="Layer_1" xmlns="http://www.w3.org/2000/svg" xmlns:xlink="http://www.w3.org/1999/xlink" x="0px" y="0px"
	 viewBox="0 0 1080 1080" style="enable-background:new 0 0 1080 1080;" xml:space="preserve">
<style type="text/css">
	.st0{fill:#EB8C25;}
	.st1{fill:#F9BB26;}
	.st2{fill:#DD8027;}
	.st3{fill:#FFDF76;}
	.st4{fill:#45293D;}
</style>
<g>
	<path class="st0" d="M729.69,287.08H350.31v63.23h-63.23v379.38h63.23v63.23h379.38v-63.23h63.23V350.31h-63.23V287.08z
		 M729.69,413.54v252.92h-63.23v63.23H413.54v-63.23h-63.23V413.54h63.23v-63.23h252.92v63.23H729.69z"/>
	<polygon class="st1" points="350.31,666.46 413.54,666.46 413.54,729.69 666.46,729.69 666.46,666.46 729.69,666.46 729.69,476.77 
		666.46,476.77 666.46,413.54 540,413.54 540,350.31 413.54,350.31 413.54,413.54 350.31,413.54 	"/>
	<polygon class="st1" points="919.38,287.08 856.15,287.08 856.15,223.85 729.69,223.85 729.69,287.08 792.92,287.08 792.92,350.31 
		856.15,350.31 856.15,729.69 792.92,729.69 792.92,792.92 729.69,792.92 729.69,856.15 350.31,856.15 350.31,792.92 287.08,792.92 
		287.08,729.69 223.85,729.69 223.85,350.31 287.08,350.31 287.08,287.08 350.31,287.08 350.31,223.85 223.85,223.85 223.85,287.08 
		160.62,287.08 160.62,350.31 97.4,350.31 97.4,729.69 160.62,729.69 160.62,856.15 223.85,856.15 223.85,919.38 350.31,919.38 
		350.31,982.6 729.69,982.6 729.69,919.38 856.15,919.38 856.15,856.15 919.38,856.15 919.38,729.69 982.6,729.69 982.6,413.54 
		919.38,413.54 	"/>
	<rect x="350.31" y="160.62" class="st1" width="379.38" height="63.23"/>
	<rect x="350.31" y="792.92" class="st2" width="379.38" height="63.23"/>
	<rect x="729.69" y="729.69" class="st2" width="63.23" height="63.23"/>
	<rect x="287.08" y="729.69" class="st2" width="63.23" height="63.23"/>
	<rect x="223.85" y="350.31" class="st2" width="63.23" height="379.38"/>
	<rect x="792.92" y="350.31" class="st2" width="63.23" height="379.38"/>
	<rect x="729.69" y="287.08" class="st2" width="63.23" height="63.23"/>
	<rect x="287.08" y="287.08" class="st2" width="63.23" height="63.23"/>
	<rect x="350.31" y="223.85" class="st2" width="379.38" height="63.23"/>
	<rect x="666.46" y="413.54" class="st3" width="63.23" height="63.23"/>
	<rect x="919.38" y="350.31" class="st3" width="63.23" height="63.23"/>
	<rect x="540" y="350.31" class="st3" width="126.46" height="63.23"/>
	<rect x="856.15" y="223.85" class="st3" width="63.23" height="63.23"/>
	<rect x="160.62" y="223.85" class="st3" width="63.23" height="63.23"/>
	<rect x="729.69" y="160.62" class="st3" width="126.46" height="63.23"/>
	<rect x="223.85" y="160.62" class="st3" width="126.46" height="63.23"/>
	<rect x="350.31" y="97.4" class="st3" width="379.38" height="63.23"/>
	<rect x="350.31" y="982.6" class="st4" width="379.38" height="63.23"/>
	<rect x="729.69" y="919.38" class="st4" width="126.46" height="63.23"/>
	<rect x="223.85" y="919.38" class="st4" width="126.46" height="63.23"/>
	<rect x="856.15" y="856.15" class="st4" width="63.23" height="63.23"/>
	<rect x="160.62" y="856.15" class="st4" width="63.23" height="63.23"/>
	<rect x="919.38" y="729.69" class="st4" width="63.23" height="126.46"/>
	<rect x="97.4" y="729.69" class="st4" width="63.23" height="126.46"/>
	<rect x="34.17" y="350.31" class="st4" width="63.23" height="379.38"/>
	<rect x="982.6" y="350.31" class="st4" width="63.23" height="379.38"/>
	<rect x="919.38" y="223.85" class="st4" width="63.23" height="126.46"/>
	<rect x="97.4" y="223.85" class="st4" width="63.23" height="126.46"/>
	<rect x="856.15" y="160.62" class="st4" width="63.23" height="63.23"/>
	<rect x="160.62" y="160.62" class="st4" width="63.23" height="63.23"/>
	<rect x="729.69" y="97.4" class="st4" width="126.46" height="63.23"/>
	<rect x="223.85" y="97.4" class="st4" width="126.46" height="63.23"/>
	<rect x="350.31" y="34.17" class="st4" width="379.38" height="63.23"/>
</g>
</svg>
