<?xml version="1.0" encoding="utf-8"?>
<!-- Generator: Adobe Illustrator 26.0.1, SVG Export Plug-In . SVG Version: 6.00 Build 0)  -->
<svg version="1.1" id="Layer_1" xmlns="http://www.w3.org/2000/svg" xmlns:xlink="http://www.w3.org/1999/xlink" x="0px" y="0px"
	 viewBox="0 0 1080 1080" style="enable-background:new 0 0 1080 1080;" xml:space="preserve">
<style type="text/css">
	.st0{fill:#972F43;}
	.st1{fill:#AD3332;}
	.st2{fill:#D95864;}
	.st3{fill:#45293D;}
</style>
<g>
	<rect x="475.02" y="864.91" class="st0" width="129.97" height="64.98"/>
	<rect x="604.98" y="799.93" class="st0" width="64.98" height="64.98"/>
	<rect x="410.03" y="799.93" class="st0" width="64.98" height="64.98"/>
	<rect x="669.97" y="734.95" class="st0" width="64.98" height="64.98"/>
	<rect x="345.05" y="734.95" class="st0" width="64.98" height="64.98"/>
	<rect x="734.95" y="669.97" class="st0" width="64.98" height="64.98"/>
	<rect x="280.07" y="669.97" class="st0" width="64.98" height="64.98"/>
	<rect x="799.93" y="604.98" class="st0" width="64.98" height="64.98"/>
	<rect x="215.09" y="604.98" class="st0" width="64.98" height="64.98"/>
	<rect x="150.1" y="540" class="st0" width="64.98" height="64.98"/>
	<polygon class="st1" points="215.09,540 215.09,604.98 280.07,604.98 280.07,669.97 345.05,669.97 345.05,734.95 410.03,734.95 
		410.03,799.93 475.02,799.93 475.02,864.91 604.98,864.91 604.98,799.93 669.97,799.93 669.97,734.95 734.95,734.95 734.95,669.97 
		799.93,669.97 799.93,604.98 929.9,604.98 929.9,540 994.88,540 994.88,280.07 929.9,280.07 929.9,215.09 669.97,215.09 
		669.97,280.07 540,280.07 540,345.05 475.02,345.05 475.02,280.07 410.03,280.07 410.03,215.09 150.1,215.09 150.1,280.07 
		85.12,280.07 85.12,540 	"/>
	<rect x="475.02" y="280.07" class="st2" width="64.98" height="64.98"/>
	<rect x="929.9" y="215.09" class="st2" width="64.98" height="64.98"/>
	<rect x="604.98" y="215.09" class="st2" width="64.98" height="64.98"/>
	<rect x="410.03" y="215.09" class="st2" width="64.98" height="64.98"/>
	<rect x="85.12" y="215.09" class="st2" width="64.98" height="64.98"/>
	<rect x="669.97" y="150.1" class="st2" width="259.93" height="64.98"/>
	<rect x="150.1" y="150.1" class="st2" width="259.93" height="64.98"/>
	<rect x="475.02" y="929.9" class="st3" width="129.97" height="64.98"/>
	<rect x="604.98" y="864.91" class="st3" width="64.98" height="64.98"/>
	<rect x="410.03" y="864.91" class="st3" width="64.98" height="64.98"/>
	<rect x="669.97" y="799.93" class="st3" width="64.98" height="64.98"/>
	<rect x="345.05" y="799.93" class="st3" width="64.98" height="64.98"/>
	<rect x="734.95" y="734.95" class="st3" width="64.98" height="64.98"/>
	<rect x="280.07" y="734.95" class="st3" width="64.98" height="64.98"/>
	<rect x="799.93" y="669.97" class="st3" width="64.98" height="64.98"/>
	<rect x="215.09" y="669.97" class="st3" width="64.98" height="64.98"/>
	<rect x="864.91" y="604.98" class="st3" width="64.98" height="64.98"/>
	<rect x="150.1" y="604.98" class="st3" width="64.98" height="64.98"/>
	<rect x="929.9" y="540" class="st3" width="64.98" height="64.98"/>
	<rect x="85.12" y="540" class="st3" width="64.98" height="64.98"/>
	<rect x="20.14" y="215.09" class="st3" width="64.98" height="324.91"/>
	<rect x="994.88" y="215.09" class="st3" width="64.98" height="324.91"/>
	<rect x="475.02" y="215.09" class="st3" width="129.97" height="64.98"/>
	<rect x="929.9" y="150.1" class="st3" width="64.98" height="64.98"/>
	<rect x="604.98" y="150.1" class="st3" width="64.98" height="64.98"/>
	<rect x="410.03" y="150.1" class="st3" width="64.98" height="64.98"/>
	<rect x="85.12" y="150.1" class="st3" width="64.98" height="64.98"/>
	<rect x="669.97" y="85.12" class="st3" width="259.93" height="64.98"/>
	<rect x="150.1" y="85.12" class="st3" width="259.93" height="64.98"/>
</g>
</svg>
