<?xml version="1.0" encoding="utf-8"?>
<!-- Generator: Adobe Illustrator 26.0.1, SVG Export Plug-In . SVG Version: 6.00 Build 0)  -->
<svg version="1.1" id="Layer_1" xmlns="http://www.w3.org/2000/svg" xmlns:xlink="http://www.w3.org/1999/xlink" x="0px" y="0px"
	 viewBox="0 0 1080 1080" style="enable-background:new 0 0 1080 1080;" xml:space="preserve">
<style type="text/css">
	.st0{fill:#EDC39A;}
	.st1{fill:#972F43;}
	.st2{fill:#EB8C25;}
	.st3{fill:#AD3332;}
	.st4{fill:#DD8027;}
	.st5{fill:#D9A066;}
	.st6{fill:#45293D;}
</style>
<g>
	<g>
		<polygon class="st0" points="860.32,732.19 860.32,796.26 732.19,796.26 732.19,860.32 347.81,860.32 347.81,796.26 
			219.68,796.26 219.68,732.19 155.61,732.19 155.61,860.32 283.74,860.32 283.74,924.39 796.26,924.39 796.26,860.32 
			924.39,860.32 924.39,732.19 		"/>
	</g>
	<rect x="796.26" y="732.19" class="st1" width="64.06" height="64.06"/>
	<rect x="283.74" y="668.13" class="st1" width="64.06" height="64.06"/>
	<rect x="347.81" y="604.07" class="st1" width="64.06" height="64.06"/>
	<rect x="540" y="411.87" class="st1" width="64.06" height="64.06"/>
	<rect x="604.07" y="347.81" class="st1" width="128.13" height="64.06"/>
	<rect x="347.81" y="347.81" class="st1" width="64.06" height="64.06"/>
	<rect x="219.68" y="668.13" class="st2" width="64.06" height="64.06"/>
	<polygon class="st2" points="604.07,540 604.07,475.94 540,475.94 540,347.81 604.07,347.81 604.07,283.74 668.13,283.74 
		668.13,219.68 604.07,219.68 604.07,155.61 475.94,155.61 475.94,411.87 347.81,411.87 347.81,540 475.94,540 475.94,604.07 
		540,604.07 540,732.19 475.94,732.19 475.94,796.26 732.19,796.26 732.19,604.07 796.26,604.07 796.26,540 	"/>
	<rect x="283.74" y="540" class="st2" width="64.06" height="64.06"/>
	<polygon class="st3" points="796.26,668.13 732.19,668.13 732.19,732.19 860.32,732.19 860.32,604.07 796.26,604.07 	"/>
	<polygon class="st3" points="475.94,604.07 411.87,604.07 411.87,668.13 347.81,668.13 347.81,796.26 475.94,796.26 475.94,732.19 
		540,732.19 540,668.13 475.94,668.13 	"/>
	<rect x="604.07" y="411.87" class="st3" width="128.13" height="128.13"/>
	<rect x="411.87" y="283.74" class="st3" width="64.06" height="128.13"/>
	<rect x="540" y="91.55" class="st3" width="64.06" height="64.06"/>
	<g>
		<rect x="347.81" y="796.26" class="st4" width="384.39" height="64.06"/>
		<rect x="732.19" y="732.19" class="st4" width="64.06" height="64.06"/>
		<rect x="219.68" y="732.19" class="st4" width="128.13" height="64.06"/>
		<rect x="732.19" y="604.07" class="st4" width="64.06" height="64.06"/>
		<rect x="475.94" y="604.07" class="st4" width="64.06" height="64.06"/>
		<rect x="219.68" y="604.07" class="st4" width="128.13" height="64.06"/>
		<rect x="347.81" y="540" class="st4" width="128.13" height="64.06"/>
		<rect x="732.19" y="475.94" class="st4" width="64.06" height="64.06"/>
		<rect x="283.74" y="475.94" class="st4" width="64.06" height="64.06"/>
		<rect x="540" y="347.81" class="st4" width="64.06" height="64.06"/>
		<rect x="604.07" y="283.74" class="st4" width="64.06" height="64.06"/>
		<rect x="411.87" y="219.68" class="st4" width="64.06" height="64.06"/>
		<rect x="475.94" y="91.55" class="st4" width="64.06" height="64.06"/>
	</g>
	<g>
		<rect x="283.74" y="924.39" class="st5" width="512.52" height="64.06"/>
		<rect x="796.26" y="860.32" class="st5" width="128.13" height="64.06"/>
		<rect x="155.61" y="860.32" class="st5" width="128.13" height="64.06"/>
	</g>
	<rect x="283.74" y="988.45" class="st6" width="512.52" height="64.06"/>
	<rect x="796.26" y="924.39" class="st6" width="128.13" height="64.06"/>
	<rect x="155.61" y="924.39" class="st6" width="128.13" height="64.06"/>
	<rect x="91.55" y="732.19" class="st6" width="64.06" height="192.19"/>
	<rect x="924.39" y="732.19" class="st6" width="64.06" height="192.19"/>
	<rect x="860.32" y="604.07" class="st6" width="64.06" height="128.13"/>
	<rect x="155.61" y="604.07" class="st6" width="64.06" height="128.13"/>
	<rect x="796.26" y="475.94" class="st6" width="64.06" height="128.13"/>
	<rect x="219.68" y="475.94" class="st6" width="64.06" height="128.13"/>
	<rect x="732.19" y="347.81" class="st6" width="64.06" height="128.13"/>
	<rect x="283.74" y="347.81" class="st6" width="64.06" height="128.13"/>
	<rect x="668.13" y="219.68" class="st6" width="64.06" height="128.13"/>
	<rect x="347.81" y="219.68" class="st6" width="64.06" height="128.13"/>
	<rect x="604.07" y="91.55" class="st6" width="64.06" height="128.13"/>
	<rect x="411.87" y="91.55" class="st6" width="64.06" height="128.13"/>
	<rect x="475.94" y="27.48" class="st6" width="128.13" height="64.06"/>
</g>
</svg>
