<?xml version="1.0" encoding="utf-8"?>
<!-- Generator: Adobe Illustrator 26.0.1, SVG Export Plug-In . SVG Version: 6.00 Build 0)  -->
<svg version="1.1" id="Layer_1" xmlns="http://www.w3.org/2000/svg" xmlns:xlink="http://www.w3.org/1999/xlink" x="0px" y="0px"
	 viewBox="0 0 1080 1080" style="enable-background:new 0 0 1080 1080;" xml:space="preserve">
<style type="text/css">
	.st0{fill:#857F87;}
	.st1{fill:#663A32;}
	.st2{fill:#F9BB26;}
	.st3{fill:#90573C;}
	.st4{fill:#9CAEB8;}
	.st5{fill:#FFFFFF;}
	.st6{fill:#45293D;}
</style>
<g>
	<rect x="540" y="604.88" class="st0" width="64.88" height="64.88"/>
	<rect x="604.88" y="540" class="st0" width="64.88" height="64.88"/>
	<rect x="669.77" y="475.12" class="st0" width="64.88" height="64.88"/>
	<rect x="280.46" y="734.65" class="st1" width="64.88" height="64.88"/>
	<rect x="734.65" y="410.23" class="st0" width="64.88" height="64.88"/>
	<rect x="799.54" y="345.35" class="st0" width="64.88" height="64.88"/>
	<rect x="864.42" y="280.46" class="st0" width="64.88" height="64.88"/>
	<rect x="929.31" y="215.58" class="st0" width="64.88" height="64.88"/>
	<rect x="604.88" y="864.42" class="st2" width="64.88" height="64.88"/>
	<rect x="540" y="799.54" class="st2" width="64.88" height="64.88"/>
	<rect x="475.12" y="734.65" class="st2" width="64.88" height="64.88"/>
	<rect x="410.23" y="669.77" class="st2" width="64.88" height="64.88"/>
	<rect x="345.35" y="604.88" class="st2" width="64.88" height="64.88"/>
	<rect x="280.46" y="540" class="st2" width="64.88" height="64.88"/>
	<rect x="215.58" y="475.12" class="st2" width="64.88" height="64.88"/>
	<rect x="150.69" y="410.23" class="st2" width="64.88" height="64.88"/>
	<rect x="85.81" y="929.31" class="st3" width="64.88" height="64.88"/>
	<rect x="150.69" y="864.42" class="st3" width="64.88" height="64.88"/>
	<rect x="215.58" y="799.54" class="st3" width="64.88" height="64.88"/>
	<polygon class="st4" points="929.31,85.81 929.31,150.69 864.42,150.69 864.42,215.58 799.54,215.58 799.54,280.46 734.65,280.46 
		734.65,345.35 669.77,345.35 669.77,410.23 604.88,410.23 604.88,475.12 540,475.12 540,540 475.12,540 475.12,669.77 540,669.77 
		540,604.88 604.88,604.88 604.88,540 669.77,540 669.77,475.12 734.65,475.12 734.65,410.23 799.54,410.23 799.54,345.35 
		864.42,345.35 864.42,280.46 929.31,280.46 929.31,215.58 994.19,215.58 994.19,85.81 	"/>
	<polygon class="st5" points="799.54,85.81 799.54,150.69 734.65,150.69 734.65,215.58 669.77,215.58 669.77,280.46 604.88,280.46 
		604.88,345.35 540,345.35 540,410.23 475.12,410.23 475.12,475.12 410.23,475.12 410.23,604.88 475.12,604.88 475.12,540 540,540 
		540,475.12 604.88,475.12 604.88,410.23 669.77,410.23 669.77,345.35 734.65,345.35 734.65,280.46 799.54,280.46 799.54,215.58 
		864.42,215.58 864.42,150.69 929.31,150.69 929.31,85.81 	"/>
	<rect x="150.69" y="929.31" class="st6" width="64.88" height="64.88"/>
	<polygon class="st6" points="85.81,929.31 20.92,929.31 20.92,1059.08 150.69,1059.08 150.69,994.19 85.81,994.19 	"/>
	<rect x="215.58" y="864.42" class="st6" width="64.88" height="64.88"/>
	<rect x="85.81" y="864.42" class="st6" width="64.88" height="64.88"/>
	<polygon class="st6" points="669.77,864.42 669.77,929.31 604.88,929.31 604.88,864.42 540,864.42 540,994.19 734.65,994.19 
		734.65,799.54 604.88,799.54 604.88,864.42 	"/>
	<rect x="475.12" y="799.54" class="st6" width="64.88" height="64.88"/>
	<rect x="280.46" y="799.54" class="st6" width="64.88" height="64.88"/>
	<rect x="150.69" y="799.54" class="st6" width="64.88" height="64.88"/>
	<polygon class="st6" points="410.23,734.65 410.23,669.77 345.35,669.77 345.35,604.88 280.46,604.88 280.46,734.65 345.35,734.65 
		345.35,799.54 475.12,799.54 475.12,734.65 	"/>
	<rect x="215.58" y="734.65" class="st6" width="64.88" height="64.88"/>
	<polygon class="st6" points="475.12,669.77 475.12,734.65 540,734.65 540,799.54 604.88,799.54 604.88,669.77 	"/>
	<rect x="604.88" y="604.88" class="st6" width="64.88" height="64.88"/>
	<rect x="410.23" y="604.88" class="st6" width="64.88" height="64.88"/>
	<rect x="669.77" y="540" class="st6" width="64.88" height="64.88"/>
	<rect x="215.58" y="540" class="st6" width="64.88" height="64.88"/>
	<rect x="734.65" y="475.12" class="st6" width="64.88" height="64.88"/>
	<polygon class="st6" points="345.35,540 345.35,604.88 410.23,604.88 410.23,475.12 280.46,475.12 280.46,540 	"/>
	<polygon class="st6" points="150.69,475.12 150.69,410.23 215.58,410.23 215.58,475.12 280.46,475.12 280.46,345.35 85.81,345.35 
		85.81,540 215.58,540 215.58,475.12 	"/>
	<rect x="799.54" y="410.23" class="st6" width="64.88" height="64.88"/>
	<rect x="410.23" y="410.23" class="st6" width="64.88" height="64.88"/>
	<rect x="864.42" y="345.35" class="st6" width="64.88" height="64.88"/>
	<rect x="475.12" y="345.35" class="st6" width="64.88" height="64.88"/>
	<rect x="929.31" y="280.46" class="st6" width="64.88" height="64.88"/>
	<rect x="540" y="280.46" class="st6" width="64.88" height="64.88"/>
	<rect x="604.88" y="215.58" class="st6" width="64.88" height="64.88"/>
	<rect x="669.77" y="150.69" class="st6" width="64.88" height="64.88"/>
	<rect x="734.65" y="85.81" class="st6" width="64.88" height="64.88"/>
	<polygon class="st6" points="799.54,20.92 799.54,85.81 994.19,85.81 994.19,280.46 1059.08,280.46 1059.08,20.92 	"/>
</g>
</svg>
